<svg width="42" height="42" viewBox="0 0 42 42" fill="none" xmlns="http://www.w3.org/2000/svg">
<path fill-rule="evenodd" clip-rule="evenodd" d="M15.2712 0.25C6.92949 0.25 0.166992 7.76449 0.166992 17.0337C0.166992 37.8687 25.167 41.92 25.167 41.92V33.8175H26.7295C35.0712 33.8175 41.8337 26.303 41.8337 17.0337C41.8337 7.76449 35.0712 0.25 26.7295 0.25H15.2712ZM21.0003 20.5062C21.691 20.5062 22.3534 20.2014 22.8417 19.6587C23.3301 19.116 23.6045 18.38 23.6045 17.6125C23.6045 16.845 23.3301 16.109 22.8417 15.5663C22.3534 15.0236 21.691 14.7187 21.0003 14.7187C20.3097 14.7187 19.6473 15.0236 19.1589 15.5663C18.6705 16.109 18.3962 16.845 18.3962 17.6125C18.3962 18.38 18.6705 19.116 19.1589 19.6587C19.6473 20.2014 20.3097 20.5062 21.0003 20.5062ZM31.9378 17.6125C31.9378 18.38 31.6635 19.116 31.1751 19.6587C30.6867 20.2014 30.0243 20.5062 29.3337 20.5062C28.643 20.5062 27.9806 20.2014 27.4922 19.6587C27.0039 19.116 26.7295 18.38 26.7295 17.6125C26.7295 16.845 27.0039 16.109 27.4922 15.5663C27.9806 15.0236 28.643 14.7187 29.3337 14.7187C30.0243 14.7187 30.6867 15.0236 31.1751 15.5663C31.6635 16.109 31.9378 16.845 31.9378 17.6125ZM12.667 20.5062C13.3577 20.5062 14.02 20.2014 14.5084 19.6587C14.9968 19.116 15.2712 18.38 15.2712 17.6125C15.2712 16.845 14.9968 16.109 14.5084 15.5663C14.02 15.0236 13.3577 14.7187 12.667 14.7187C11.9763 14.7187 11.3139 15.0236 10.8256 15.5663C10.3372 16.109 10.0628 16.845 10.0628 17.6125C10.0628 18.38 10.3372 19.116 10.8256 19.6587C11.3139 20.2014 11.9763 20.5062 12.667 20.5062Z" fill="#14D9C2"/>
</svg>
