<svg width="42" height="42" viewBox="0 0 42 42" fill="none" xmlns="http://www.w3.org/2000/svg">
<path d="M0.070818 26.3671C0.140816 26.6314 0.26246 26.8793 0.42873 27.0963C0.595001 27.3133 0.802607 27.4953 1.03957 27.6317L5.01874 29.9317V34.513C5.01874 35.0655 5.23823 35.5954 5.62893 35.9861C6.01963 36.3768 6.54953 36.5963 7.10207 36.5963H11.6833L13.9833 40.5755C14.1678 40.8908 14.4311 41.1526 14.7474 41.3352C15.0638 41.5179 15.4222 41.615 15.7875 41.6171C16.15 41.6171 16.5104 41.5213 16.8312 41.3359L20.8062 39.038L24.7854 41.338C25.2638 41.6138 25.832 41.6887 26.3655 41.5461C26.899 41.4036 27.3542 41.0553 27.6312 40.5775L29.9292 36.5984H34.5104C35.0629 36.5984 35.5928 36.3789 35.9835 35.9882C36.3742 35.5975 36.5937 35.0676 36.5937 34.515V29.9338L40.5729 27.6338C40.8099 27.4968 41.0176 27.3145 41.1841 27.0972C41.3507 26.8799 41.4727 26.6319 41.5433 26.3674C41.614 26.1029 41.6318 25.8271 41.5957 25.5558C41.5597 25.2844 41.4705 25.0228 41.3333 24.7859L39.0354 20.8088L41.3354 16.8338C41.6118 16.3556 41.687 15.7871 41.5444 15.2534C41.4018 14.7198 41.0531 14.2646 40.575 13.988L36.5958 11.688V7.10463C36.5958 6.5521 36.3763 6.02219 35.9856 5.63149C35.5949 5.24079 35.065 5.0213 34.5125 5.0213H29.9312L27.6333 1.04421C27.3558 0.566957 26.9015 0.218184 26.3687 0.0733807C26.1045 0.00174714 25.8287 -0.0167239 25.5572 0.0190381C25.2858 0.0548002 25.0242 0.144084 24.7875 0.281714L20.8062 2.57963L16.8292 0.279631C16.3509 0.0032025 15.7825 -0.0719783 15.2488 0.0706185C14.7151 0.213215 14.2599 0.561915 13.9833 1.04005L11.6833 5.01921H7.10207C6.54953 5.01921 6.01963 5.23871 5.62893 5.62941C5.23823 6.02011 5.01874 6.55001 5.01874 7.10255V11.6838L1.03957 13.9838C0.561574 14.2616 0.21316 14.7175 0.0706337 15.2517C-0.0718922 15.7859 0.00308767 16.3548 0.279152 16.8338L2.57915 20.8088L0.279152 24.7838C0.00412518 25.2636 -0.0707274 25.8325 0.070818 26.3671ZM20.8062 22.8921C13.5562 22.8921 12.4729 18.9775 12.4729 16.6421C12.4729 13.9609 14.6167 11.2609 18.7229 10.5692V8.3338H22.8896V10.6442C26.5021 11.4984 27.8896 14.5046 27.8896 16.6421H25.8062L23.7229 16.6796C23.6937 15.888 23.275 14.5588 20.8062 14.5588C18.1 14.5588 16.6396 15.6317 16.6396 16.6421C16.6396 17.4213 16.6396 18.7255 20.8062 18.7255C28.0562 18.7255 29.1396 22.64 29.1396 24.9755C29.1396 27.6567 26.9958 30.3567 22.8896 31.0484V33.3088H18.7229V31.0588C13.85 30.2942 12.4729 26.8859 12.4729 24.9755H16.6396C16.6625 25.2734 16.9708 27.0588 20.8062 27.0588C23.6812 27.0588 24.9729 25.84 24.9729 24.9755C24.9729 24.2984 24.9729 22.8921 20.8062 22.8921Z" fill="#14D9C2"/>
</svg>
